<svg xmlns="http://www.w3.org/2000/svg" xmlns:xlink="http://www.w3.org/1999/xlink" contentStyleType="text/css" data-diagram-type="DESCRIPTION" height="791px" preserveAspectRatio="none" style="width:895px;height:791px;background:#FFFFFF;" version="1.1" viewBox="0 0 895 791" width="895px" zoomAndPan="magnify"><defs/><g><!--cluster bot--><g class="cluster" data-entity="bot" data-source-line="3" data-uid="ent0002" id="cluster_bot"><rect fill="#FFFFFF" height="113.29" rx="2.5" ry="2.5" style="stroke:#000000;stroke-width:1;" width="207" x="187" y="12"/><rect fill="#FFFFFF" height="10" style="stroke:#000000;stroke-width:1;" width="15" x="374" y="17"/><rect fill="#FFFFFF" height="2" style="stroke:#000000;stroke-width:1;" width="4" x="372" y="19"/><rect fill="#FFFFFF" height="2" style="stroke:#000000;stroke-width:1;" width="4" x="372" y="23"/><text fill="#000000" font-family="Verdana" font-size="14" font-weight="bold" lengthAdjust="spacing" textLength="106.1553" x="237.4224" y="37.9951">Telegram Bot</text></g><!--cluster backend--><g class="cluster" data-entity="backend" data-source-line="7" data-uid="ent0004" id="cluster_backend"><rect fill="#FFFFFF" height="113.3" rx="2.5" ry="2.5" style="stroke:#000000;stroke-width:1;" width="382" x="12" y="190.29"/><rect fill="#FFFFFF" height="10" style="stroke:#000000;stroke-width:1;" width="15" x="374" y="195.29"/><rect fill="#FFFFFF" height="2" style="stroke:#000000;stroke-width:1;" width="4" x="372" y="197.29"/><rect fill="#FFFFFF" height="2" style="stroke:#000000;stroke-width:1;" width="4" x="372" y="201.29"/><text fill="#000000" font-family="Verdana" font-size="14" font-weight="bold" lengthAdjust="spacing" textLength="145.2227" x="130.3887" y="216.2851">Backend (FastAPI)</text></g><!--cluster ml--><g class="cluster" data-entity="ml" data-source-line="12" data-uid="ent0007" id="cluster_ml"><rect fill="#FFFFFF" height="416.89" rx="2.5" ry="2.5" style="stroke:#000000;stroke-width:1;" width="166" x="40" y="368.59"/><rect fill="#FFFFFF" height="10" style="stroke:#000000;stroke-width:1;" width="15" x="186" y="373.59"/><rect fill="#FFFFFF" height="2" style="stroke:#000000;stroke-width:1;" width="4" x="184" y="375.59"/><rect fill="#FFFFFF" height="2" style="stroke:#000000;stroke-width:1;" width="4" x="184" y="379.59"/><text fill="#000000" font-family="Verdana" font-size="14" font-weight="bold" lengthAdjust="spacing" textLength="91.3623" x="77.3188" y="394.5851">ML Pipeline</text></g><!--cluster db--><g class="cluster" data-entity="db" data-source-line="17" data-uid="ent0013" id="cluster_db"><rect fill="#FFFFFF" height="113.29" rx="2.5" ry="2.5" style="stroke:#000000;stroke-width:1;" width="293" x="246" y="546.89"/><rect fill="#FFFFFF" height="10" style="stroke:#000000;stroke-width:1;" width="15" x="519" y="551.89"/><rect fill="#FFFFFF" height="2" style="stroke:#000000;stroke-width:1;" width="4" x="517" y="553.89"/><rect fill="#FFFFFF" height="2" style="stroke:#000000;stroke-width:1;" width="4" x="517" y="557.89"/><text fill="#000000" font-family="Verdana" font-size="14" font-weight="bold" lengthAdjust="spacing" textLength="74.5049" x="355.2476" y="572.8851">Database</text></g><!--cluster infra--><g class="cluster" data-entity="infra" data-source-line="22" data-uid="ent0016" id="cluster_infra"><rect fill="#FFFFFF" height="113.3" rx="2.5" ry="2.5" style="stroke:#000000;stroke-width:1;" width="330" x="486" y="368.59"/><rect fill="#FFFFFF" height="10" style="stroke:#000000;stroke-width:1;" width="15" x="796" y="373.59"/><rect fill="#FFFFFF" height="2" style="stroke:#000000;stroke-width:1;" width="4" x="794" y="375.59"/><rect fill="#FFFFFF" height="2" style="stroke:#000000;stroke-width:1;" width="4" x="794" y="379.59"/><text fill="#000000" font-family="Verdana" font-size="14" font-weight="bold" lengthAdjust="spacing" textLength="110.8721" x="595.564" y="394.5851">Infrastructure</text></g><!--entity User Interface--><g class="entity" data-entity="User Interface" data-source-line="4" data-uid="ent0003" id="entity_User Interface"><rect fill="#FFFFFF" height="46.2969" rx="2.5" ry="2.5" style="stroke:#000000;stroke-width:1;" width="139.0391" x="211.48" y="55"/><rect fill="#FFFFFF" height="10" style="stroke:#000000;stroke-width:1;" width="15" x="330.5191" y="60"/><rect fill="#FFFFFF" height="2" style="stroke:#000000;stroke-width:1;" width="4" x="328.5191" y="62"/><rect fill="#FFFFFF" height="2" style="stroke:#000000;stroke-width:1;" width="4" x="328.5191" y="66"/><text fill="#000000" font-family="Verdana" font-size="14" lengthAdjust="spacing" textLength="99.0391" x="226.48" y="87.9951">User Interface</text></g><!--entity API Endpoints--><g class="entity" data-entity="API Endpoints" data-source-line="8" data-uid="ent0005" id="entity_API Endpoints"><rect fill="#FFFFFF" height="46.2969" rx="2.5" ry="2.5" style="stroke:#000000;stroke-width:1;" width="136.2021" x="35.9" y="233.29"/><rect fill="#FFFFFF" height="10" style="stroke:#000000;stroke-width:1;" width="15" x="152.1021" y="238.29"/><rect fill="#FFFFFF" height="2" style="stroke:#000000;stroke-width:1;" width="4" x="150.1021" y="240.29"/><rect fill="#FFFFFF" height="2" style="stroke:#000000;stroke-width:1;" width="4" x="150.1021" y="244.29"/><text fill="#000000" font-family="Verdana" font-size="14" lengthAdjust="spacing" textLength="96.2021" x="50.9" y="266.2851">API Endpoints</text></g><!--entity Business Logic--><g class="entity" data-entity="Business Logic" data-source-line="9" data-uid="ent0006" id="entity_Business Logic"><rect fill="#FFFFFF" height="46.2969" rx="2.5" ry="2.5" style="stroke:#000000;stroke-width:1;" width="143.0244" x="207.49" y="233.29"/><rect fill="#FFFFFF" height="10" style="stroke:#000000;stroke-width:1;" width="15" x="330.5144" y="238.29"/><rect fill="#FFFFFF" height="2" style="stroke:#000000;stroke-width:1;" width="4" x="328.5144" y="240.29"/><rect fill="#FFFFFF" height="2" style="stroke:#000000;stroke-width:1;" width="4" x="328.5144" y="244.29"/><text fill="#000000" font-family="Verdana" font-size="14" lengthAdjust="spacing" textLength="103.0244" x="222.49" y="266.2851">Business Logic</text></g><!--entity Parser--><g class="entity" data-entity="Parser" data-source-line="13" data-uid="ent0008" id="entity_Parser"><rect fill="#FFFFFF" height="46.2969" rx="2.5" ry="2.5" style="stroke:#000000;stroke-width:1;" width="84.4404" x="76.78" y="411.59"/><rect fill="#FFFFFF" height="10" style="stroke:#000000;stroke-width:1;" width="15" x="141.2204" y="416.59"/><rect fill="#FFFFFF" height="2" style="stroke:#000000;stroke-width:1;" width="4" x="139.2204" y="418.59"/><rect fill="#FFFFFF" height="2" style="stroke:#000000;stroke-width:1;" width="4" x="139.2204" y="422.59"/><text fill="#000000" font-family="Verdana" font-size="14" lengthAdjust="spacing" textLength="44.4404" x="91.78" y="444.5851">Parser</text></g><!--entity Featurizer--><g class="entity" data-entity="Featurizer" data-source-line="13" data-uid="ent0009" id="entity_Featurizer"><rect fill="#FFFFFF" height="46.2969" rx="2.5" ry="2.5" style="stroke:#000000;stroke-width:1;" width="110.9707" x="63.51" y="589.89"/><rect fill="#FFFFFF" height="10" style="stroke:#000000;stroke-width:1;" width="15" x="154.4807" y="594.89"/><rect fill="#FFFFFF" height="2" style="stroke:#000000;stroke-width:1;" width="4" x="152.4807" y="596.89"/><rect fill="#FFFFFF" height="2" style="stroke:#000000;stroke-width:1;" width="4" x="152.4807" y="600.89"/><text fill="#000000" font-family="Verdana" font-size="14" lengthAdjust="spacing" textLength="70.9707" x="78.51" y="622.8851">Featurizer</text></g><!--entity Model--><g class="entity" data-entity="Model" data-source-line="14" data-uid="ent0011" id="entity_Model"><rect fill="#FFFFFF" height="46.2969" rx="2.5" ry="2.5" style="stroke:#000000;stroke-width:1;" width="82.0342" x="77.98" y="715.18"/><rect fill="#FFFFFF" height="10" style="stroke:#000000;stroke-width:1;" width="15" x="140.0142" y="720.18"/><rect fill="#FFFFFF" height="2" style="stroke:#000000;stroke-width:1;" width="4" x="138.0142" y="722.18"/><rect fill="#FFFFFF" height="2" style="stroke:#000000;stroke-width:1;" width="4" x="138.0142" y="726.18"/><text fill="#000000" font-family="Verdana" font-size="14" lengthAdjust="spacing" textLength="42.0342" x="92.98" y="748.1751">Model</text></g><!--entity Cache--><g class="entity" data-entity="Cache" data-source-line="18" data-uid="ent0014" id="entity_Cache"><rect fill="#FFFFFF" height="46.2969" rx="2.5" ry="2.5" style="stroke:#000000;stroke-width:1;" width="83.5381" x="270.23" y="589.89"/><rect fill="#FFFFFF" height="10" style="stroke:#000000;stroke-width:1;" width="15" x="333.7681" y="594.89"/><rect fill="#FFFFFF" height="2" style="stroke:#000000;stroke-width:1;" width="4" x="331.7681" y="596.89"/><rect fill="#FFFFFF" height="2" style="stroke:#000000;stroke-width:1;" width="4" x="331.7681" y="600.89"/><text fill="#000000" font-family="Verdana" font-size="14" lengthAdjust="spacing" textLength="43.5381" x="285.23" y="622.8851">Cache</text></g><!--entity Metadata--><g class="entity" data-entity="Metadata" data-source-line="19" data-uid="ent0015" id="entity_Metadata"><rect fill="#FFFFFF" height="46.2969" rx="2.5" ry="2.5" style="stroke:#000000;stroke-width:1;" width="106.2949" x="388.85" y="589.89"/><rect fill="#FFFFFF" height="10" style="stroke:#000000;stroke-width:1;" width="15" x="475.1449" y="594.89"/><rect fill="#FFFFFF" height="2" style="stroke:#000000;stroke-width:1;" width="4" x="473.1449" y="596.89"/><rect fill="#FFFFFF" height="2" style="stroke:#000000;stroke-width:1;" width="4" x="473.1449" y="600.89"/><text fill="#000000" font-family="Verdana" font-size="14" lengthAdjust="spacing" textLength="66.2949" x="403.85" y="622.8851">Metadata</text></g><!--entity Docker--><g class="entity" data-entity="Docker" data-source-line="23" data-uid="ent0017" id="entity_Docker"><rect fill="#FFFFFF" height="46.2969" rx="2.5" ry="2.5" style="stroke:#000000;stroke-width:1;" width="89.5195" x="510.24" y="411.59"/><rect fill="#FFFFFF" height="10" style="stroke:#000000;stroke-width:1;" width="15" x="579.7595" y="416.59"/><rect fill="#FFFFFF" height="2" style="stroke:#000000;stroke-width:1;" width="4" x="577.7595" y="418.59"/><rect fill="#FFFFFF" height="2" style="stroke:#000000;stroke-width:1;" width="4" x="577.7595" y="422.59"/><text fill="#000000" font-family="Verdana" font-size="14" lengthAdjust="spacing" textLength="49.5195" x="525.24" y="444.5851">Docker</text></g><!--entity Cloud Hosting--><g class="entity" data-entity="Cloud Hosting" data-source-line="24" data-uid="ent0018" id="entity_Cloud Hosting"><rect fill="#FFFFFF" height="46.2969" rx="2.5" ry="2.5" style="stroke:#000000;stroke-width:1;" width="137.9658" x="635.02" y="411.59"/><rect fill="#FFFFFF" height="10" style="stroke:#000000;stroke-width:1;" width="15" x="752.9858" y="416.59"/><rect fill="#FFFFFF" height="2" style="stroke:#000000;stroke-width:1;" width="4" x="750.9858" y="418.59"/><rect fill="#FFFFFF" height="2" style="stroke:#000000;stroke-width:1;" width="4" x="750.9858" y="422.59"/><text fill="#000000" font-family="Verdana" font-size="14" lengthAdjust="spacing" textLength="97.9658" x="650.02" y="444.5851">Cloud Hosting</text></g><!--link Parser to Featurizer--><g class="link" data-entity-1="Parser" data-entity-2="Featurizer" data-source-line="13" data-uid="lnk10" id="link_Parser_Featurizer"><path d="M119,458.07 C119,491.88 119,549.73 119,583.61" fill="none" id="Parser-to-Featurizer" style="stroke:#000000;stroke-width:1;"/><polygon fill="#000000" points="119,589.61,123,580.61,119,584.61,115,580.61,119,589.61" style="stroke:#000000;stroke-width:1;"/></g><!--link Featurizer to Model--><g class="link" data-entity-1="Featurizer" data-entity-2="Model" data-source-line="14" data-uid="lnk12" id="link_Featurizer_Model"><path d="M119,636.65 C119,658.9 119,686.66 119,708.86" fill="none" id="Featurizer-to-Model" style="stroke:#000000;stroke-width:1;"/><polygon fill="#000000" points="119,714.86,123,705.86,119,709.86,115,705.86,119,714.86" style="stroke:#000000;stroke-width:1;"/></g><!--link bot to backend--><g class="link" data-entity-1="bot" data-entity-2="backend" data-source-line="27" data-uid="lnk19" id="link_bot_backend"><path d="M386,125.8006 C386,126.099 386,126.3982 386,126.6981 C386,127.2981 386,127.9012 386,128.5075 C386,130.9323 386,133.4061 386,135.919 C386,145.9706 386,156.6481 386,167.325 C386,172.6634 386,178.0017 386,183.2615 C386,184.5765 386,185.8865 386,187.1904 C386,187.8424 386,188.4928 386,189.1416 C386,189.466 386,183.7899 386,184.1134" fill="none" id="bot-to-backend" style="stroke:#000000;stroke-width:1;"/><polygon fill="#000000" points="386,190.1134,390,181.1134,386,185.1134,382,181.1134,386,190.1134" style="stroke:#000000;stroke-width:1;"/><text fill="#000000" font-family="Verdana" font-size="13" lengthAdjust="spacing" textLength="97.792" x="387" y="162.3569">HTTP Requests</text></g><!--link backend to ml--><g class="link" data-entity-1="backend" data-entity-2="ml" data-source-line="28" data-uid="lnk20" id="link_backend_ml"><path d="M378.8316,303.8175 C378.7859,303.9171 378.7398,304.0166 378.6935,304.1159 C378.5082,304.5131 378.3185,304.9081 378.1242,305.3004 C377.7356,306.085 377.3288,306.8594 376.9029,307.6214 C376.0512,309.1455 375.1232,310.6205 374.1123,312.0307 C372.0906,314.8511 369.7375,317.4125 367,319.59 C347.13,335.4 274.22,313.64 253,327.59 C231.145,341.95 217.48,367.8875 209.2375,390.5275 C208.2072,393.3575 207.2616,396.136 206.3953,398.8339 C206.2871,399.1711 207.9888,393.7862 207.883,394.1209" fill="none" id="backend-to-ml" style="stroke:#000000;stroke-width:1;"/><polygon fill="#000000" points="206.0742,399.8418,212.6014,392.4664,207.5816,395.0744,204.9736,390.0546,206.0742,399.8418" style="stroke:#000000;stroke-width:1;"/><text fill="#000000" font-family="Verdana" font-size="13" lengthAdjust="spacing" textLength="105.1045" x="254" y="340.6569">Data Processing</text></g><!--link ml to db--><g class="link" data-entity-1="ml" data-entity-2="db" data-source-line="29" data-uid="lnk21" id="link_ml_db"><path d="M206.1286,487.6552 C206.1804,487.8046 206.2325,487.954 206.285,488.1034 C206.39,488.4021 206.4962,488.7006 206.6038,488.9989 C207.0343,490.1919 207.4862,491.3807 207.9606,492.5623 C208.9093,494.9255 209.948,497.2601 211.0852,499.5422 C215.6338,508.6706 221.7575,516.96 230,522.89 C255.35,541.13 486.69,511.28 511,530.89 C514.5013,533.7138 517.4478,537.0434 519.9227,540.7151 C521.1601,542.551 522.2796,544.4723 523.2916,546.4587 C523.3548,546.5829 520.7315,541.3421 520.7939,541.4668" fill="none" id="ml-to-db" style="stroke:#000000;stroke-width:1;"/><polygon fill="#000000" points="523.4801,546.8319,523.0275,536.9934,521.2416,542.361,515.874,540.575,523.4801,546.8319" style="stroke:#000000;stroke-width:1;"/><text fill="#000000" font-family="Verdana" font-size="13" lengthAdjust="spacing" textLength="128.7305" x="231" y="518.9569">Save/Load Features</text></g><!--link backend to db--><g class="link" data-entity-1="backend" data-entity-2="db" data-source-line="30" data-uid="lnk22" id="link_backend_db"><path d="M378.8871,304.2795 C378.8248,304.9023 378.7632,305.5298 378.7024,306.1616 C378.4593,308.6891 378.2291,311.288 378.0157,313.9515 C377.1623,324.6056 376.5791,336.2944 376.5263,348.59 C376.315,397.7725 384.59,456.665 418,497.89 C445.61,531.96 481.57,498.37 511,530.89 C514.0188,534.2238 516.5997,537.94 518.8046,541.8972 C519.3558,542.8865 519.8835,543.8909 520.3887,544.9081 C520.6413,545.4167 520.8882,545.9285 521.1297,546.4433 C521.19,546.572 518.7319,541.2549 518.7915,541.3839" fill="none" id="backend-to-db" style="stroke:#000000;stroke-width:1;"/><polygon fill="#000000" points="521.3097,546.8299,521.1631,536.9822,519.2112,542.2916,513.9018,540.3397,521.3097,546.8299" style="stroke:#000000;stroke-width:1;"/><text fill="#000000" font-family="Verdana" font-size="13" lengthAdjust="spacing" textLength="74.6802" x="419" y="439.3069">Query Data</text></g><!--link backend to infra--><g class="link" data-entity-1="backend" data-entity-2="infra" data-source-line="31" data-uid="lnk23" id="link_backend_infra"><path d="M394.2898,258.2276 C394.7365,258.2712 395.2001,258.3166 395.6803,258.3639 C397.601,258.5531 399.7874,258.7716 402.2213,259.0197 C411.957,260.0119 425.6527,261.4763 442.1428,263.4225 C475.1231,267.315 519.2813,273.135 565.2925,280.96 C657.315,296.61 756.75,320.28 789,352.59 C792.1688,355.765 794.8488,359.3609 797.1119,363.2293 C797.6777,364.1964 798.2174,365.1805 798.7322,366.1794 C798.9896,366.6788 799.2408,367.1819 799.4859,367.6883 C799.6084,367.9416 797.1823,362.7631 797.3018,363.018" fill="none" id="backend-to-infra" style="stroke:#000000;stroke-width:1;"/><polygon fill="#000000" points="799.8489,368.4506,799.65,358.6037,797.7264,363.9235,792.4066,361.9998,799.8489,368.4506" style="stroke:#000000;stroke-width:1;"/><text fill="#000000" font-family="Verdana" font-size="13" lengthAdjust="spacing" textLength="79.5171" x="775" y="340.6569">Deployment</text></g><!--link infra to db--><g class="link" data-entity-1="infra" data-entity-2="db" data-source-line="32" data-uid="lnk24" id="link_infra_db"><path d="M799.1849,482.1211 C799.1397,482.2227 799.0943,482.3241 799.0487,482.4254 C798.6838,483.236 798.304,484.04 797.9088,484.8356 C797.1184,486.4269 796.2663,487.9849 795.3478,489.496 C793.5106,492.5181 791.4075,495.3525 789,497.89 C781.84,505.43 776.64,501.97 767,505.89 C714.55,527.185 656.56,553.23 611.1888,574.1913 C588.5031,584.6719 568.9722,593.8816 554.8658,600.5911 C551.3392,602.2685 548.1516,603.7896 545.3385,605.1353 C543.932,605.8081 542.6191,606.437 541.4042,607.0197 C540.7968,607.3111 540.2139,607.5909 539.6561,607.8588 C539.5166,607.9258 544.787,605.3938 544.6506,605.4592" fill="none" id="infra-to-db" style="stroke:#000000;stroke-width:1;"/><polygon fill="#000000" points="539.2424,608.0575,549.0869,607.7656,543.7493,605.8923,545.6226,600.5546,539.2424,608.0575" style="stroke:#000000;stroke-width:1;"/><text fill="#000000" font-family="Verdana" font-size="13" lengthAdjust="spacing" textLength="119.7676" x="768" y="518.9569">Persistent Storage</text></g><!--SRC=[NP11Jm8n48Nl_HKZ9pqGxnnC12IGGB8AdWY7eHsMncvdRRicQFplJhTYX6FVpFlwtjoa8pK4hKFhbTBSjEp99nXio54Ti84nfm5WX3qd-580szT80HO-KJYWfftwll2DKR-HDt0xmvWUgyLTCV-gFK1KUFAcPUjJt6Lbt4NhAKPOSctrDNArXCgsv6IbXpMkS2eC4cK7m-43R6U4gGlsKuGy-_SiynKRSjVaAIRSOonOio_O2UeZzP0L9JIoScrR-4EGTg7JyaSnsomL_vIbQqanSTmPc7DCrjSz9LynvpaVP0JppQQ25thlAAQepdhUaPuZo16X2gpbF09H8kQPX1t16Z_eVibeeDIbIt-_yznHEFMKYrd9AtXg7PyQgQMAz6UiA4GRKowyJXomfXy0]--></g></svg>