<svg xmlns="http://www.w3.org/2000/svg" xmlns:xlink="http://www.w3.org/1999/xlink" contentStyleType="text/css" data-diagram-type="DESCRIPTION" height="522px" preserveAspectRatio="none" style="width:333px;height:522px;background:#FFFFFF;" version="1.1" viewBox="0 0 333 522" width="333px" zoomAndPan="magnify"><defs/><g><!--cluster cloud--><g class="cluster" data-entity="cloud" data-source-line="1" data-uid="ent0002" id="cluster_cloud"><polygon fill="none" points="16,167.3,26,157.3,316,157.3,316,495.19,306,505.19,16,505.19,16,167.3" style="stroke:#181818;stroke-width:1;"/><line style="stroke:#181818;stroke-width:1;" x1="306" x2="316" y1="167.3" y2="157.3"/><line style="stroke:#181818;stroke-width:1;" x1="16" x2="306" y1="167.3" y2="167.3"/><line style="stroke:#181818;stroke-width:1;" x1="306" x2="306" y1="167.3" y2="505.19"/><text fill="#000000" font-family="sans-serif" font-size="14" font-weight="bold" lengthAdjust="spacing" textLength="185.459" x="69.2705" y="183.2951">Cloud (Render/Railway)</text></g><!--cluster user--><g class="cluster" data-entity="user" data-source-line="7" data-uid="ent0006" id="cluster_user"><polygon fill="none" points="82,16,92,6,251,6,251,98.3,241,108.3,82,108.3,82,16" style="stroke:#181818;stroke-width:1;"/><line style="stroke:#181818;stroke-width:1;" x1="241" x2="251" y1="16" y2="6"/><line style="stroke:#181818;stroke-width:1;" x1="82" x2="241" y1="16" y2="16"/><line style="stroke:#181818;stroke-width:1;" x1="241" x2="241" y1="16" y2="108.3"/><text fill="#000000" font-family="sans-serif" font-size="14" font-weight="bold" lengthAdjust="spacing" textLength="93.8096" x="115.5952" y="31.9951">User Device</text></g><!--entity server--><g class="entity" data-entity="server" data-source-line="2" data-uid="ent0003" id="entity_server"><rect fill="#F1F1F1" height="46.2969" rx="2.5" ry="2.5" style="stroke:#181818;stroke-width:0.5;" width="150.7217" x="86.64" y="197.3"/><rect fill="#F1F1F1" height="10" style="stroke:#181818;stroke-width:0.5;" width="15" x="217.3617" y="202.3"/><rect fill="#F1F1F1" height="2" style="stroke:#181818;stroke-width:0.5;" width="4" x="215.3617" y="204.3"/><rect fill="#F1F1F1" height="2" style="stroke:#181818;stroke-width:0.5;" width="4" x="215.3617" y="208.3"/><text fill="#000000" font-family="sans-serif" font-size="14" lengthAdjust="spacing" textLength="110.7217" x="101.64" y="230.2951">Backend Server</text></g><!--entity ml_service--><g class="entity" data-entity="ml_service" data-source-line="3" data-uid="ent0004" id="entity_ml_service"><rect fill="#F1F1F1" height="46.2969" rx="2.5" ry="2.5" style="stroke:#181818;stroke-width:0.5;" width="116.0703" x="31.96" y="320.6"/><rect fill="#F1F1F1" height="10" style="stroke:#181818;stroke-width:0.5;" width="15" x="128.0303" y="325.6"/><rect fill="#F1F1F1" height="2" style="stroke:#181818;stroke-width:0.5;" width="4" x="126.0303" y="327.6"/><rect fill="#F1F1F1" height="2" style="stroke:#181818;stroke-width:0.5;" width="4" x="126.0303" y="331.6"/><text fill="#000000" font-family="sans-serif" font-size="14" lengthAdjust="spacing" textLength="76.0703" x="46.96" y="353.5951">ML Service</text></g><!--entity db--><g class="entity" data-entity="db" data-source-line="4" data-uid="ent0005" id="entity_db"><path d="M112.62,453.89 C112.62,443.89 162.9965,443.89 162.9965,443.89 C162.9965,443.89 213.3729,443.89 213.3729,453.89 L213.3729,479.1869 C213.3729,489.1869 162.9965,489.1869 162.9965,489.1869 C162.9965,489.1869 112.62,489.1869 112.62,479.1869 L112.62,453.89" fill="#F1F1F1" style="stroke:#181818;stroke-width:0.5;"/><path d="M112.62,453.89 C112.62,463.89 162.9965,463.89 162.9965,463.89 C162.9965,463.89 213.3729,463.89 213.3729,453.89" fill="none" style="stroke:#181818;stroke-width:0.5;"/><text fill="#000000" font-family="sans-serif" font-size="14" lengthAdjust="spacing" textLength="80.7529" x="122.62" y="480.8851">PostgreSQL</text></g><!--entity telegram--><g class="entity" data-entity="telegram" data-source-line="8" data-uid="ent0007" id="entity_telegram"><rect fill="#F1F1F1" height="46.2969" rx="2.5" ry="2.5" style="stroke:#181818;stroke-width:0.5;" width="106.5273" x="108.74" y="46"/><rect fill="#F1F1F1" height="10" style="stroke:#181818;stroke-width:0.5;" width="15" x="195.2673" y="51"/><rect fill="#F1F1F1" height="2" style="stroke:#181818;stroke-width:0.5;" width="4" x="193.2673" y="53"/><rect fill="#F1F1F1" height="2" style="stroke:#181818;stroke-width:0.5;" width="4" x="193.2673" y="57"/><text fill="#000000" font-family="sans-serif" font-size="14" lengthAdjust="spacing" textLength="66.5273" x="123.74" y="78.9951">Telegram</text></g><!--link telegram to server--><g class="link" data-entity-1="telegram" data-entity-2="server" data-source-line="11" data-uid="lnk8" id="link_telegram_server"><path d="M162,92.5 C162,120.65 162,162.73 162,190.94" fill="none" id="telegram-to-server" style="stroke:#181818;stroke-width:1;"/><polygon fill="#181818" points="162,196.94,166,187.94,162,191.94,158,187.94,162,196.94" style="stroke:#181818;stroke-width:1;"/><text fill="#000000" font-family="sans-serif" font-size="13" lengthAdjust="spacing" textLength="41.7485" x="163" y="137.3669">HTTPS</text></g><!--link server to ml_service--><g class="link" data-entity-1="server" data-entity-2="ml_service" data-source-line="12" data-uid="lnk9" id="link_server_ml_service"><path d="M148.63,243.98 C135.69,265.77 119.2736,293.4311 106.3636,315.1711" fill="none" id="server-to-ml_service" style="stroke:#181818;stroke-width:1;"/><polygon fill="#181818" points="103.3,320.33,111.3346,314.634,105.853,316.0309,104.4561,310.5492,103.3,320.33" style="stroke:#181818;stroke-width:1;"/><text fill="#000000" font-family="sans-serif" font-size="13" lengthAdjust="spacing" textLength="75.0293" x="131" y="286.6669">Internal API</text></g><!--link server to db--><g class="link" data-entity-1="server" data-entity-2="db" data-source-line="13" data-uid="lnk10" id="link_server_db"><path d="M191.48,243.9 C200.09,252.19 208.41,262.34 213,273.6 C236.54,331.34 236.39,356.09 213,413.89 C208.46,425.11 204.4903,431.0761 195.9603,439.3361" fill="none" id="server-to-db" style="stroke:#181818;stroke-width:1;"/><polygon fill="#181818" points="191.65,443.51,200.898,440.1227,195.2419,440.0318,195.3329,434.3756,191.65,443.51" style="stroke:#181818;stroke-width:1;"/><text fill="#000000" font-family="sans-serif" font-size="13" lengthAdjust="spacing" textLength="80.0566" x="231" y="348.3069">SQL Queries</text></g><!--link ml_service to db--><g class="link" data-entity-1="ml_service" data-entity-2="db" data-source-line="14" data-uid="lnk11" id="link_ml_service_db"><path d="M91.74,367.19 C93.65,381.38 97.64,399.66 106,413.89 C112.56,425.06 117.7822,431.2663 127.3922,439.5363" fill="none" id="ml_service-to-db" style="stroke:#181818;stroke-width:1;"/><polygon fill="#181818" points="131.94,443.45,127.7274,434.5475,128.1501,440.1886,122.5091,440.6113,131.94,443.45" style="stroke:#181818;stroke-width:1;"/><text fill="#000000" font-family="sans-serif" font-size="13" lengthAdjust="spacing" textLength="101.4546" x="107" y="409.9569">Features Cache</text></g><!--SRC=[NOxBQiCm44Nt-eh1gsPXki-Ya3gK1bBmg-iobYw9YImLIKu89VzUMNNIjBkvt3CpnrW5oWfjHqKFDOo2UwovroS-Bp9YJp9LNu98sk7J6fX0sJFBGsIfWJl29SwdyI_sjar4Bv6GGN_udnWnnO4xzl5vQNtOEJJLDb6g4nSXJF9wZpojSRimJlcVImkDdUCX0M4EqudhJ7d-DElHabxRjcp47AVcrogs6nFW36jQbPjxI7MnZ8PKZN0zlBZRklKlu30wU2fOxl4D]--></g></svg>