<svg xmlns="http://www.w3.org/2000/svg" xmlns:xlink="http://www.w3.org/1999/xlink" contentStyleType="text/css" data-diagram-type="SEQUENCE" height="473px" preserveAspectRatio="none" style="width:833px;height:473px;background:#FFFFFF;" version="1.1" viewBox="0 0 833 473" width="833px" zoomAndPan="magnify"><defs/><g><g><title>User</title><rect fill="#000000" fill-opacity="0.00000" height="311.3281" width="8" x="19.9551" y="81.2969"/><line style="stroke:#181818;stroke-width:0.5;stroke-dasharray:5.0,5.0;" x1="23" x2="23" y1="81.2969" y2="392.625"/></g><g><title>Telegram Bot</title><rect fill="#000000" fill-opacity="0.00000" height="311.3281" width="8" x="210.2192" y="81.2969"/><line style="stroke:#181818;stroke-width:0.5;stroke-dasharray:5.0,5.0;" x1="213.9009" x2="213.9009" y1="81.2969" y2="392.625"/></g><g><title>Backend (FastAPI)</title><rect fill="#000000" fill-opacity="0.00000" height="311.3281" width="8" x="418.5933" y="81.2969"/><line style="stroke:#181818;stroke-width:0.5;stroke-dasharray:5.0,5.0;" x1="421.9438" x2="421.9438" y1="81.2969" y2="392.625"/></g><g><title>Parser</title><rect fill="#000000" fill-opacity="0.00000" height="311.3281" width="8" x="612.6978" y="81.2969"/><line style="stroke:#181818;stroke-width:0.5;stroke-dasharray:5.0,5.0;" x1="616.4775" x2="616.4775" y1="81.2969" y2="392.625"/></g><g><title>ML Model</title><rect fill="#000000" fill-opacity="0.00000" height="311.3281" width="8" x="692.0996" y="81.2969"/><line style="stroke:#181818;stroke-width:0.5;stroke-dasharray:5.0,5.0;" x1="695.918" x2="695.918" y1="81.2969" y2="392.625"/></g><g><title>Database</title><rect fill="#000000" fill-opacity="0.00000" height="311.3281" width="8" x="782.6816" y="81.2969"/><line style="stroke:#181818;stroke-width:0.5;stroke-dasharray:5.0,5.0;" x1="786.2813" x2="786.2813" y1="81.2969" y2="392.625"/></g><g class="participant participant-head" data-participant="User"><text fill="#000000" font-family="sans-serif" font-size="14" lengthAdjust="spacing" textLength="31.9102" x="5" y="77.9951">User</text><ellipse cx="23.9551" cy="13.5" fill="#E2E2F0" rx="8" ry="8" style="stroke:#181818;stroke-width:0.5;"/><path d="M23.9551,21.5 L23.9551,48.5 M10.9551,29.5 L36.9551,29.5 M23.9551,48.5 L10.9551,63.5 M23.9551,48.5 L36.9551,63.5" fill="none" style="stroke:#181818;stroke-width:0.5;"/></g><g class="participant participant-tail" data-participant="User"><text fill="#000000" font-family="sans-serif" font-size="14" lengthAdjust="spacing" textLength="31.9102" x="5" y="404.6201">User</text><ellipse cx="23.9551" cy="416.4219" fill="#E2E2F0" rx="8" ry="8" style="stroke:#181818;stroke-width:0.5;"/><path d="M23.9551,424.4219 L23.9551,451.4219 M10.9551,432.4219 L36.9551,432.4219 M23.9551,451.4219 L10.9551,466.4219 M23.9551,451.4219 L36.9551,466.4219" fill="none" style="stroke:#181818;stroke-width:0.5;"/></g><g class="participant participant-head" data-participant="Bot"><rect fill="#E2E2F0" height="30.2969" rx="2.5" ry="2.5" style="stroke:#181818;stroke-width:0.5;" width="108.6367" x="159.9009" y="50"/><text fill="#000000" font-family="sans-serif" font-size="14" lengthAdjust="spacing" textLength="94.6367" x="166.9009" y="69.9951">Telegram Bot</text></g><g class="participant participant-tail" data-participant="Bot"><rect fill="#E2E2F0" height="30.2969" rx="2.5" ry="2.5" style="stroke:#181818;stroke-width:0.5;" width="108.6367" x="159.9009" y="391.625"/><text fill="#000000" font-family="sans-serif" font-size="14" lengthAdjust="spacing" textLength="94.6367" x="166.9009" y="411.6201">Telegram Bot</text></g><g class="participant participant-head" data-participant="API"><rect fill="#E2E2F0" height="30.2969" rx="2.5" ry="2.5" style="stroke:#181818;stroke-width:0.5;" width="141.2988" x="351.9438" y="50"/><text fill="#000000" font-family="sans-serif" font-size="14" lengthAdjust="spacing" textLength="127.2988" x="358.9438" y="69.9951">Backend (FastAPI)</text></g><g class="participant participant-tail" data-participant="API"><rect fill="#E2E2F0" height="30.2969" rx="2.5" ry="2.5" style="stroke:#181818;stroke-width:0.5;" width="141.2988" x="351.9438" y="391.625"/><text fill="#000000" font-family="sans-serif" font-size="14" lengthAdjust="spacing" textLength="127.2988" x="358.9438" y="411.6201">Backend (FastAPI)</text></g><g class="participant participant-head" data-participant="Parser"><rect fill="#E2E2F0" height="30.2969" rx="2.5" ry="2.5" style="stroke:#181818;stroke-width:0.5;" width="58.4404" x="587.4775" y="50"/><text fill="#000000" font-family="sans-serif" font-size="14" lengthAdjust="spacing" textLength="44.4404" x="594.4775" y="69.9951">Parser</text></g><g class="participant participant-tail" data-participant="Parser"><rect fill="#E2E2F0" height="30.2969" rx="2.5" ry="2.5" style="stroke:#181818;stroke-width:0.5;" width="58.4404" x="587.4775" y="391.625"/><text fill="#000000" font-family="sans-serif" font-size="14" lengthAdjust="spacing" textLength="44.4404" x="594.4775" y="411.6201">Parser</text></g><g class="participant participant-head" data-participant="Model"><rect fill="#E2E2F0" height="30.2969" rx="2.5" ry="2.5" style="stroke:#181818;stroke-width:0.5;" width="80.3633" x="655.918" y="50"/><text fill="#000000" font-family="sans-serif" font-size="14" lengthAdjust="spacing" textLength="66.3633" x="662.918" y="69.9951">ML Model</text></g><g class="participant participant-tail" data-participant="Model"><rect fill="#E2E2F0" height="30.2969" rx="2.5" ry="2.5" style="stroke:#181818;stroke-width:0.5;" width="80.3633" x="655.918" y="391.625"/><text fill="#000000" font-family="sans-serif" font-size="14" lengthAdjust="spacing" textLength="66.3633" x="662.918" y="411.6201">ML Model</text></g><g class="participant participant-head" data-participant="DB"><rect fill="#E2E2F0" height="30.2969" rx="2.5" ry="2.5" style="stroke:#181818;stroke-width:0.5;" width="80.8008" x="746.2813" y="50"/><text fill="#000000" font-family="sans-serif" font-size="14" lengthAdjust="spacing" textLength="66.8008" x="753.2813" y="69.9951">Database</text></g><g class="participant participant-tail" data-participant="DB"><rect fill="#E2E2F0" height="30.2969" rx="2.5" ry="2.5" style="stroke:#181818;stroke-width:0.5;" width="80.8008" x="746.2813" y="391.625"/><text fill="#000000" font-family="sans-serif" font-size="14" lengthAdjust="spacing" textLength="66.8008" x="753.2813" y="411.6201">Database</text></g><g class="message" data-participant-1="User" data-participant-2="Bot"><polygon fill="#181818" points="202.2192,108.4297,212.2192,112.4297,202.2192,116.4297,206.2192,112.4297" style="stroke:#181818;stroke-width:1;"/><line style="stroke:#181818;stroke-width:1;" x1="23.9551" x2="208.2192" y1="112.4297" y2="112.4297"/><text fill="#000000" font-family="sans-serif" font-size="13" lengthAdjust="spacing" textLength="130.6475" x="30.9551" y="107.3638">/predict &lt;cian-link&gt;</text></g><g class="message" data-participant-1="Bot" data-participant-2="API"><polygon fill="#181818" points="410.5933,137.5625,420.5933,141.5625,410.5933,145.5625,414.5933,141.5625" style="stroke:#181818;stroke-width:1;"/><line style="stroke:#181818;stroke-width:1;" x1="214.2192" x2="416.5933" y1="141.5625" y2="141.5625"/><text fill="#000000" font-family="sans-serif" font-size="13" lengthAdjust="spacing" textLength="126.3501" x="221.2192" y="136.4966">POST /predict {url}</text></g><g class="message" data-participant-1="API" data-participant-2="Parser"><polygon fill="#181818" points="604.6978,166.6953,614.6978,170.6953,604.6978,174.6953,608.6978,170.6953" style="stroke:#181818;stroke-width:1;"/><line style="stroke:#181818;stroke-width:1;" x1="422.5933" x2="610.6978" y1="170.6953" y2="170.6953"/><text fill="#000000" font-family="sans-serif" font-size="13" lengthAdjust="spacing" textLength="128.5273" x="429.5933" y="165.6294">Запрос на парсинг</text></g><g class="message" data-participant-1="Parser" data-participant-2="API"><polygon fill="#181818" points="433.5933,195.8281,423.5933,199.8281,433.5933,203.8281,429.5933,199.8281" style="stroke:#181818;stroke-width:1;"/><line style="stroke:#181818;stroke-width:1;stroke-dasharray:2.0,2.0;" x1="427.5933" x2="615.6978" y1="199.8281" y2="199.8281"/><text fill="#000000" font-family="sans-serif" font-size="13" lengthAdjust="spacing" textLength="170.1045" x="439.5933" y="194.7622">Данные квартиры (JSON)</text></g><g class="message" data-participant-1="API" data-participant-2="Model"><polygon fill="#181818" points="684.0996,224.9609,694.0996,228.9609,684.0996,232.9609,688.0996,228.9609" style="stroke:#181818;stroke-width:1;"/><line style="stroke:#181818;stroke-width:1;" x1="422.5933" x2="690.0996" y1="228.9609" y2="228.9609"/><text fill="#000000" font-family="sans-serif" font-size="13" lengthAdjust="spacing" textLength="161.1479" x="429.5933" y="223.895">Прогнозирование цены</text></g><g class="message" data-participant-1="Model" data-participant-2="API"><polygon fill="#181818" points="433.5933,254.0938,423.5933,258.0938,433.5933,262.0938,429.5933,258.0938" style="stroke:#181818;stroke-width:1;"/><line style="stroke:#181818;stroke-width:1;stroke-dasharray:2.0,2.0;" x1="427.5933" x2="695.0996" y1="258.0938" y2="258.0938"/><text fill="#000000" font-family="sans-serif" font-size="13" lengthAdjust="spacing" textLength="143.0889" x="439.5933" y="253.0278">Предсказанная цена</text></g><g class="message" data-participant-1="API" data-participant-2="DB"><polygon fill="#181818" points="774.6816,283.2266,784.6816,287.2266,774.6816,291.2266,778.6816,287.2266" style="stroke:#181818;stroke-width:1;"/><line style="stroke:#181818;stroke-width:1;" x1="422.5933" x2="780.6816" y1="287.2266" y2="287.2266"/><text fill="#000000" font-family="sans-serif" font-size="13" lengthAdjust="spacing" textLength="216.125" x="429.5933" y="282.1606">Сохранить кэш (id объявления)</text></g><g class="message" data-participant-1="DB" data-participant-2="API"><polygon fill="#181818" points="433.5933,312.3594,423.5933,316.3594,433.5933,320.3594,429.5933,316.3594" style="stroke:#181818;stroke-width:1;"/><line style="stroke:#181818;stroke-width:1;stroke-dasharray:2.0,2.0;" x1="427.5933" x2="785.6816" y1="316.3594" y2="316.3594"/><text fill="#000000" font-family="sans-serif" font-size="13" lengthAdjust="spacing" textLength="111.8457" x="439.5933" y="311.2935">Подтверждение</text></g><g class="message" data-participant-1="API" data-participant-2="Bot"><polygon fill="#181818" points="225.2192,341.4922,215.2192,345.4922,225.2192,349.4922,221.2192,345.4922" style="stroke:#181818;stroke-width:1;"/><line style="stroke:#181818;stroke-width:1;stroke-dasharray:2.0,2.0;" x1="219.2192" x2="421.5933" y1="345.4922" y2="345.4922"/><text fill="#000000" font-family="sans-serif" font-size="13" lengthAdjust="spacing" textLength="184.374" x="231.2192" y="340.4263">Результат (цена + анализ)</text></g><g class="message" data-participant-1="Bot" data-participant-2="User"><polygon fill="#181818" points="34.9551,370.625,24.9551,374.625,34.9551,378.625,30.9551,374.625" style="stroke:#181818;stroke-width:1;"/><line style="stroke:#181818;stroke-width:1;stroke-dasharray:2.0,2.0;" x1="28.9551" x2="213.2192" y1="374.625" y2="374.625"/><text fill="#000000" font-family="sans-serif" font-size="13" lengthAdjust="spacing" textLength="166.2642" x="40.9551" y="369.5591">Сообщение с прогнозом</text></g><!--SRC=[LP5DIiD05CVtSug7gmGfxeiK345Gh2sqFS2O10cDQKdYIeIsegYjT2EuL6yGsyQ4rhPNU7CZtqmCDflC9E_t_vW9jw9U09tG2LYV1v5hkNtkHx3NTZpdCk1NOFIYFU2XNCk4mQskuzkW7VCmEcgUw0gZJHbhye3CrIpVbiVrCwZtRCTJWDgLvoQF-0KF7JKt3SPaLQZKP9yg7FG3ntQj20ujb_iLp_MxDKOJ2L2JAZGRhVO_TNCTUBUC1dAUjwa2lc6CMp70ZHW2hZ46t68i1cA86RtEMGv2fV34LnAiSIt6c00kSQRe4MRq78DsscgSwqM8EX59tgK_pacsmLIIjCwKJKOcuW4JwSSKlfCaPGakgCgIu3JFfRZfdmJZ8iWq2F-aCzoJHFcAaPXGFV4Y7a5pRQ34B_4iffIxKjfCJ7Lc6hjnn2pe93DCoEKR5pc7IPvIt3f-qFTKtE5AJ8YEnGYqeW_iWugFAIJ3LC__1Yax-MLJHLNagR06UUlRqlLiyESN]--></g></svg>